<?xml version="1.0" standalone="no"?>
<!DOCTYPE svg PUBLIC "-//W3C//DTD SVG 1.1//EN" "http://www.w3.org/Graphics/SVG/1.1/DTD/svg11.dtd" >
<svg xmlns="http://www.w3.org/2000/svg">
<metadata></metadata>
<defs>
<font id="effectrathinregular" horiz-adv-x="1122" >
<font-face units-per-em="2048" ascent="1638" descent="-410" />
<missing-glyph horiz-adv-x="669" />
<glyph horiz-adv-x="2048" />
<glyph horiz-adv-x="2048" />
<glyph unicode="&#xd;" horiz-adv-x="669" />
<glyph unicode=" "  horiz-adv-x="669" />
<glyph unicode="&#x09;" horiz-adv-x="669" />
<glyph unicode="&#xa0;" horiz-adv-x="669" />
<glyph unicode="!" horiz-adv-x="430" d="M82 111q0 55 39 94t94 39t94 -39t39 -94t-39 -94.5t-94 -39.5t-94 39t-39 95zM113 1479h200l-41 -1065h-118z" />
<glyph unicode="&#x22;" horiz-adv-x="610" d="M82 928v557h127v-445zM401 928v557h127v-445z" />
<glyph unicode="#" horiz-adv-x="1126" d="M82 545h211l45 354h-150l-45 100h213l58 443h106l-57 -443h293l57 443h107l-58 -443h182l-45 -100h-153l-45 -354h184l-43 -105h-158l-57 -440h-109l58 440h-291l-61 -440h-109l61 440h-147zM399 545h293l45 354h-291z" />
<glyph unicode="$" horiz-adv-x="1030" d="M82 102l82 97q147 -109 297 -121v604l-135 86q-209 129 -209 340q0 141 104 246q98 98 240 119v96h102v-94q186 -10 305 -105l-69 -100q-113 84 -236 86v-547q70 -43 207 -133q178 -127 178 -324q0 -150 -110.5 -263.5t-274.5 -129.5v-131h-102v131q-242 14 -379 143z M291 1116q0 -142 170 -246v471q-88 -27 -133 -102q-37 -59 -37 -123zM563 82q102 23 158 113q45 71 45 155q0 145 -203 268v-536z" />
<glyph unicode="%" horiz-adv-x="1863" d="M82 1065q0 213 129 311q90 70 223 70t225 -70q129 -98 129 -311q0 -207 -131 -307q-96 -72 -223 -72t-221 72q-131 100 -131 307zM221 1065q0 -139 74 -219q61 -63 139 -64q80 0 141 64q74 80 74 219q0 141 -69 221q-61 68 -146 68q-84 0 -143 -68q-70 -80 -70 -221z M446 20l867 1420h133l-864 -1420h-136zM1075 369q0 213 129 311q90 70 223 70t226 -70q129 -98 129 -311q0 -207 -131 -308q-96 -72 -224 -71q-127 0 -221 71q-131 100 -131 308zM1214 369q0 -139 74 -219q61 -63 142 -64q78 0 139 64q73 80 73 219q0 141 -69 221 q-59 68 -143 67q-84 0 -146 -67q-70 -80 -70 -221z" />
<glyph unicode="&#x26;" horiz-adv-x="1411" d="M82 373q0 281 332 409q-129 195 -129 348q0 121 97 213.5t247 92.5q141 0 239.5 -83t98.5 -214q0 -223 -357 -404q35 -45 82 -94q113 -117 266 -229q232 -170 371 -240l-82 -117l-248 162q-182 -250 -450 -250q-221 0 -350 123q-117 113 -117 283zM238 373 q0 -129 112 -211q94 -68 205 -68q172 0 358 201q-78 47 -251 190q-82 80 -177 205q-248 -88 -247 -317zM426 1118q0 -129 102 -289q297 152 297 310q0 72 -56 124t-140 52q-203 0 -203 -197z" />
<glyph unicode="'" horiz-adv-x="290" d="M82 928v557h127v-445z" />
<glyph unicode="(" horiz-adv-x="659" d="M82 580q0 543 401 923l74 -86q-315 -365 -315 -839q0 -242 88 -468.5t248 -394.5l-78 -96q-418 401 -418 961z" />
<glyph unicode=")" horiz-adv-x="659" d="M82 1407l78 96q418 -403 418 -960q0 -545 -402 -924l-74 84q315 367 316 842q0 242 -88 467t-248 395z" />
<glyph unicode="*" horiz-adv-x="921" d="M82 1122l45 131l287 -127l-23 316h137l-32 -316l299 127l45 -131l-318 -73l217 -244l-110 -82l-172 276l-164 -276l-111 82l205 244z" />
<glyph unicode="+" horiz-adv-x="1226" d="M82 510v119h473v473h119v-473h471v-119h-471v-473h-119v473h-473z" />
<glyph unicode="," horiz-adv-x="485" d="M82 -287l121 391l-21 156h221l-241 -547h-80z" />
<glyph unicode="-" horiz-adv-x="671" d="M82 406v133h508v-133h-508z" />
<glyph unicode="." horiz-adv-x="438" d="M82 123q0 55 41 96t98 41q53 0 94 -41t41 -96t-41 -96t-94 -41q-57 0 -98 40t-41 97z" />
<glyph unicode="/" horiz-adv-x="962" d="M82 -156l668 1667h131l-660 -1667h-139z" />
<glyph unicode="0" horiz-adv-x="1112" d="M82 733q0 297 104 496q127 238 371 237q242 0 369 -237q104 -199 104 -494q0 -326 -117 -532q-127 -227 -356 -228q-231 0 -358 228q-117 207 -117 530zM252 733q0 -274 67 -446q80 -201 238 -201q156 0 236 201q69 172 69 446q0 262 -69 428q-80 195 -236 195 q-158 0 -238 -195q-68 -166 -67 -428z" />
<glyph unicode="1" horiz-adv-x="671" d="M82 1223l356 231h152v-1454h-166v1348l-285 -199z" />
<glyph unicode="2" horiz-adv-x="1077" d="M82 0v125q436 467 559 604q164 184 164 350q0 90 -41 162q-68 119 -225 119q-190 0 -303 -180l-99 49q41 88 119 149q119 94 295 95q248 0 354 -148q68 -94 68 -217q0 -231 -182 -424l-533 -563h737v-121h-913z" />
<glyph unicode="3" horiz-adv-x="1011" d="M82 127l78 76q141 -119 280 -119q96 0 176 45q135 78 136 254q0 201 -170 285q-92 45 -193 45h-70v98h74q145 0 234 107q78 92 78 208q0 104 -73 171t-198 67q-150 0 -254 -109l-76 66q133 156 347 156q135 0 251 -66q164 -92 164 -276q0 -262 -258 -363 q322 -121 322 -389q0 -203 -150 -311q-133 -96 -340 -97q-233 0 -358 152z" />
<glyph unicode="4" horiz-adv-x="1148" d="M82 367v79l674 996h123v-971h188v-104h-188v-367h-156v367h-641zM248 471h475v700z" />
<glyph unicode="5" horiz-adv-x="1044" d="M82 147l86 84q127 -135 309 -135q102 0 191 60q129 86 129 258q0 391 -451 391q-63 0 -162 -23l76 658h645l-26 -117h-496l-47 -422q92 8 121 8q254 0 387 -145q119 -127 119 -332q0 -193 -145.5 -325t-350.5 -132q-229 0 -385 172z" />
<glyph unicode="6" horiz-adv-x="1105" d="M82 463q0 397 280 704q176 190 388 289l67 -49q-180 -129 -289 -256q-152 -176 -200 -344q111 86 239 86q164 0 285 -82q172 -121 172 -379q0 -225 -164 -354q-135 -106 -299 -107q-156 0 -293 101q-186 137 -186 391zM246 434q0 -170 96 -272q88 -94 217 -94 q123 0 211 107.5t88 252.5q0 158 -70 258q-82 121 -241 121q-125 0 -211 -98q-90 -104 -90 -275z" />
<glyph unicode="7" horiz-adv-x="1024" d="M82 1329v113h860v-119l-627 -1323h-168l644 1329h-709z" />
<glyph unicode="8" horiz-adv-x="1081" d="M82 367q0 305 280 415q-225 117 -225 338q0 186 150 281q111 72 250 72q141 0 256 -72q152 -94 151 -281q0 -221 -225 -338q280 -110 280 -415q0 -201 -163 -308q-131 -86 -295 -86q-162 0 -293 86q-166 106 -166 308zM242 379q0 -184 133 -264q80 -47 166 -47 q88 0 166 47q133 80 133 264q0 186 -111 274q-82 66 -188 66t-187 -66q-113 -88 -112 -274zM287 1116q0 -125 84 -207q76 -76 170 -75q94 0 170 75q84 82 84 207t-78 199q-72 66 -176 65q-104 0 -174 -65q-80 -74 -80 -199z" />
<glyph unicode="9" horiz-adv-x="1103" d="M82 999q0 231 158 367q133 113 303 113q174 0 307 -101q172 -133 172 -391q0 -399 -283 -706q-180 -197 -385 -287l-67 49q180 129 288 256q152 176 201 344q-111 -86 -239 -86q-164 0 -283 80q-172 113 -172 362zM246 1022q0 -158 67 -258q82 -121 244 -121 q125 0 213 101.5t88 271.5t-96 272q-88 94 -217 94q-125 0 -212 -104t-87 -256z" />
<glyph unicode=":" horiz-adv-x="438" d="M82 123q0 55 41 96t98 41q53 0 94 -41t41 -96t-41 -96t-94 -41q-57 0 -98 40t-41 97zM82 868q0 55 41 96.5t98 41.5q53 0 94 -41.5t41 -96.5t-41 -96t-94 -41q-57 0 -98 41t-41 96z" />
<glyph unicode=";" horiz-adv-x="507" d="M82 -287l121 391l-21 156h221l-241 -547h-80zM152 868q0 55 40.5 96.5t98.5 41.5q53 0 94 -41.5t41 -96.5t-41 -96t-94 -41q-57 0 -98 41t-41 96z" />
<glyph unicode="&#x3c;" horiz-adv-x="1171" d="M82 500v139l1008 465v-117l-875 -418l875 -417v-115z" />
<glyph unicode="=" horiz-adv-x="1226" d="M82 330v119h1063v-119h-1063zM82 690v119h1063v-119h-1063z" />
<glyph unicode="&#x3e;" horiz-adv-x="1171" d="M82 35v117l854 417l-854 418v117l1008 -465v-139z" />
<glyph unicode="?" horiz-adv-x="989" d="M82 1266q123 236 428 235q236 0 336 -137q61 -86 61 -199q0 -168 -155 -311q-78 -66 -156 -129q-92 -84 -92 -143q0 -66 22 -148h-96q-35 63 -35 158q0 90 82 184q63 66 129 129q121 129 121 256q0 80 -49 144q-70 88 -205 88q-199 0 -295 -181zM344 111q0 55 39 94 t94 39t94 -39t39 -94t-39 -94.5t-94 -39.5t-94 39t-39 95z" />
<glyph unicode="@" horiz-adv-x="1605" d="M82 692q0 328 208 557.5t525 229.5q319 0 516 -183q193 -174 193 -442t-129 -422q-106 -127 -238 -127q-129 0 -180 127q-125 -129 -270 -113q-236 29 -236 279q0 74 25 160q49 178 159 272q96 82 205 82q129 0 197 -113l143 48l-123 -445q-10 -41 -10 -78 q0 -117 104 -116q82 0 159 128t77 285q0 213 -115 357q-150 186 -461 186q-309 0 -481 -252q-131 -195 -131 -412q0 -229 113 -391q162 -233 520 -233q156 0 328 82l14 -101q-135 -84 -379 -84q-332 0 -532.5 198t-200.5 521zM602 594q0 -135 123 -160q16 -2 35 -2 q70 0 129 57q47 45 65 103q23 71 62 196q2 14 2 31q0 66 -33 117q-43 63 -117 63q-166 0 -239 -249q-27 -90 -27 -156z" />
<glyph unicode="A" horiz-adv-x="1417" d="M82 0l553 1440h170l530 -1440h-180l-133 393h-641l-133 -393h-166zM418 498h569l-278 788z" />
<glyph unicode="B" horiz-adv-x="1132" d="M82 0v1440h502q147 0 247 -60q152 -90 152 -293q0 -252 -240 -327q308 -78 308 -379q0 -217 -179 -318q-113 -63 -237 -63h-553zM233 119h381q279 0 279 262q0 197 -143 278q-84 47 -189 48h-328v-588zM233 807h345q100 0 172 63q86 78 86 217q0 135 -101 203 q-74 51 -174 51h-328v-534z" />
<glyph unicode="C" horiz-adv-x="1308" d="M82 725q0 371 248 578q202 167 464 167h3q242 0 420 -147l-80 -88q-141 115 -338 115q-205 0 -361 -154q-182 -176 -182 -477q0 -297 197 -477q166 -150 364 -150q184 0 336 119l74 -88q-172 -156 -412 -156q-283 0 -487 174q-246 209 -246 584z" />
<glyph unicode="D" horiz-adv-x="1349" d="M82 0v1440h504q225 0 403 -119q279 -188 279 -610t-303 -600q-188 -111 -441 -111h-442zM250 117h285q180 0 321 86q234 145 234 487q0 348 -199 516q-139 119 -316 119h-325v-1208z" />
<glyph unicode="E" horiz-adv-x="1001" d="M82 0v1442h776v-117h-610v-518h543l-35 -117h-508v-573h672v-117h-838z" />
<glyph unicode="F" horiz-adv-x="925" d="M82 0v1442h762v-117h-596v-520h532l-37 -117h-495v-688h-166z" />
<glyph unicode="G" horiz-adv-x="1388" d="M82 725q0 319 197 526q205 219 540 219q233 0 395 -149l-75 -86q-147 117 -334 117q-236 0 -391.5 -179.5t-155.5 -449.5q0 -276 163 -453.5t402 -177.5q227 0 328 80v516h-238l48 117h346v-733q-225 -102 -476 -103q-344 0 -550 221q-199 211 -199 535z" />
<glyph unicode="H" horiz-adv-x="1247" d="M82 0v1442h166v-637h753v635h164v-1440h-164v688h-753v-688h-166z" />
<glyph unicode="I" horiz-adv-x="368" d="M102 0v1440h164v-1440h-164z" />
<glyph unicode="J" horiz-adv-x="677" d="M82 119h172q98 0 139 47q37 41 37 135v1139h166v-1108q0 -332 -252 -332h-211z" />
<glyph unicode="K" horiz-adv-x="1173" d="M82 0v1440h162v-1440h-162zM244 766l598 674h186l-590 -654l654 -786h-211z" />
<glyph unicode="L" horiz-adv-x="931" d="M82 0v1442h166v-1325h565l37 -117h-768z" />
<glyph unicode="M" horiz-adv-x="1650" d="M82 0v1440h215l520 -1227l520 1227h232v-1440h-164v1251l-551 -1251h-96l-543 1278v-1278h-133z" />
<glyph unicode="N" horiz-adv-x="1335" d="M82 0v1440h164l866 -1233v1233h141v-1440h-168l-868 1239v-1239h-135z" />
<glyph unicode="O" horiz-adv-x="1556" d="M82 731q0 315 197.5 528.5t498.5 213.5t499 -213.5t198 -528.5q0 -328 -194 -545t-503 -217t-502.5 217t-193.5 545zM256 731q0 -262 129 -436q143 -193 393 -193t393 193q129 174 129 436q0 256 -133 424q-143 184 -389 184t-389 -184q-133 -168 -133 -424z" />
<glyph unicode="P" horiz-adv-x="1030" d="M82 0v1440h477q152 0 252 -72q137 -100 137 -317q0 -221 -145 -328q-111 -82 -275 -82h-297v-641h-149zM231 750h289q113 0 187 71q84 81 84 228q0 145 -93 221q-74 61 -178 61h-289v-581z" />
<glyph unicode="Q" horiz-adv-x="1556" d="M82 731q0 315 197.5 528.5t498.5 213.5t499 -213.5t198 -528.5q0 -303 -168 -515t-445 -243v-149q0 -117 103 -117h215l-50 -117h-217q-211 0 -211 258v125q-279 27 -450 242q-170 209 -170 516zM256 731q0 -262 129 -436q143 -193 393 -193t393 193q129 174 129 436 q0 256 -133 424q-143 184 -389 184t-389 -184q-133 -168 -133 -424z" />
<glyph unicode="R" horiz-adv-x="1085" d="M82 0v1440h475q150 0 250 -72q141 -102 141 -324q0 -285 -295 -370l351 -674h-181l-317 641h-275v-641h-149zM231 750h289q113 0 191 69q88 83 88 230q0 145 -97 221q-76 61 -182 61h-289v-581z" />
<glyph unicode="S" horiz-adv-x="1030" d="M82 102l82 97q168 -123 332 -123q137 0 213 98q57 76 57 176q0 145 -207 271q-14 10 -233 147q-209 129 -209 340q0 158 127 266q119 102 278 103q215 0 346 -107l-69 -100q-117 86 -244 86q-135 0 -209 -90q-55 -68 -55 -150q0 -145 184 -254q82 -49 178 -108 q41 -27 117 -78q178 -127 178 -324q0 -162 -127 -278.5t-307 -116.5q-279 0 -432 145z" />
<glyph unicode="T" horiz-adv-x="1239" d="M82 1325v117h1075v-117h-455v-1325h-165v1325h-455z" />
<glyph unicode="U" horiz-adv-x="1230" d="M82 549v893h166v-879q0 -465 377 -465q193 0 290 144q84 121 84 313v887h150v-901q0 -256 -148.5 -414t-379.5 -158q-250 0 -394.5 155t-144.5 425z" />
<glyph unicode="V" horiz-adv-x="1368" d="M82 1440h184l420 -1245l449 1245h151l-534 -1440h-162z" />
<glyph unicode="W" horiz-adv-x="2025" d="M82 1440h168l303 -1297l367 1297h186l381 -1288l307 1288h150l-373 -1440h-197l-364 1251l-361 -1251h-194z" />
<glyph unicode="X" horiz-adv-x="1314" d="M82 0l469 768l-420 672h197l327 -563l326 563h166l-402 -654l488 -786h-195l-397 678l-391 -678h-168z" />
<glyph unicode="Y" horiz-adv-x="1198" d="M82 1440h170l354 -684l340 684h170l-430 -828v-612h-164v612z" />
<glyph unicode="Z" horiz-adv-x="1157" d="M82 0v96l788 1233h-753v113h956v-92l-786 -1231h788l-37 -119h-956z" />
<glyph unicode="[" horiz-adv-x="534" d="M82 -358v1861h371l-62 -114h-170v-1645h170l62 -102h-371z" />
<glyph unicode="\" horiz-adv-x="987" d="M82 1497h127l696 -1515h-123z" />
<glyph unicode="]" horiz-adv-x="534" d="M82 -358l61 102h170v1645h-170l-61 114h371v-1861h-371z" />
<glyph unicode="^" horiz-adv-x="1163" d="M82 840l500 600l499 -600h-149l-350 417l-351 -417h-149z" />
<glyph unicode="_" horiz-adv-x="1187" d="M82 -180h1024v-103h-1024v103z" />
<glyph unicode="`" horiz-adv-x="602" d="M82 1489h147l291 -324h-147z" />
<glyph unicode="a" d="M82 473q0 272 141 422q125 131 314 131q186 0 356 -149v120h147v-997l-184 100q-133 -125 -321 -125q-219 0 -345 164q-109 139 -108 334zM238 473q0 -190 106 -297q88 -90 201 -90q204 0 354 213v424q-178 188 -360 188q-147 0 -224 -113.5t-77 -324.5z" />
<glyph unicode="b" d="M82 0v1440h147v-563q169 149 355 149h2q188 0 313 -131q141 -150 141 -422q0 -195 -108 -334q-125 -164 -344 -164q-188 0 -322 125zM223 299q150 -213 355 -213q113 0 200 90q107 107 107 297q0 211 -77 324.5t-224 113.5q-182 0 -361 -188v-424z" />
<glyph unicode="c" horiz-adv-x="931" d="M82 477q0 285 176 432q135 113 313 113q174 0 277 -88l-55 -86q-76 57 -213 57t-230 -98q-106 -115 -106 -326q0 -199 123 -309q98 -88 221 -88t217 61l45 -79q-102 -90 -272 -91q-221 0 -361 150q-135 143 -135 352z" />
<glyph unicode="d" d="M82 473q0 272 141 422q125 131 314 131q186 0 356 -149v563h147v-1440l-184 100q-133 -125 -321 -125q-219 0 -345 164q-109 139 -108 334zM238 473q0 -190 106 -297q88 -90 201 -90q204 0 354 213v424q-178 188 -360 188q-147 0 -224 -113.5t-77 -324.5z" />
<glyph unicode="e" horiz-adv-x="1052" d="M82 473q0 180 55 305q113 246 412 246q297 0 389 -264q32 -95 32 -223q0 -21 -1 -43h-733q-2 -17 -2 -35q0 -85 47 -189q84 -188 286 -188q141 0 246 72l47 -93q-109 -92 -315 -92q-262 0 -383 201q-80 135 -80 303zM248 592h569q-4 98 -31 168q-63 166 -229 166 q-188 0 -268 -166q-33 -70 -41 -168z" />
<glyph unicode="f" horiz-adv-x="714" d="M82 897v102h180v187q0 152 80 227q55 53 127 53h109l53 -110h-119q-106 0 -106 -156v-201h227v-102h-230v-897h-141v897h-180z" />
<glyph unicode="g" d="M82 473q0 272 141 422q125 131 314 131q172 0 331 -129l172 100v-997q0 -201 -114 -328q-125 -135 -342 -135q-47 0 -113 -2l-51 111h141q199 0 283 137q53 88 53 217v135q-158 -160 -362 -160q-219 0 -345 164q-109 139 -108 334zM238 473q0 -190 106 -297 q88 -90 201 -90q204 0 354 213v424q-178 188 -360 188q-147 0 -224 -113.5t-77 -324.5z" />
<glyph unicode="h" horiz-adv-x="1003" d="M82 0v1436l145 -88v-498q164 170 355 170q162 0 256 -109q84 -98 84 -245v-666h-146v655q0 111 -64.5 176.5t-185.5 65.5t-299 -172v-725h-145z" />
<glyph unicode="i" horiz-adv-x="391" d="M82 1354q0 47 34 79.5t81 32.5t79.5 -32.5t32.5 -79.5t-32.5 -81t-79.5 -34t-81 34t-34 81zM121 0v999h145v-999h-145z" />
<glyph unicode="j" horiz-adv-x="391" d="M82 1354q0 47 34 79.5t81 32.5t79.5 -32.5t32.5 -79.5t-32.5 -81t-79.5 -34t-81 34t-34 81zM117 -459v1458h149v-1343z" />
<glyph unicode="k" horiz-adv-x="937" d="M82 0v1440h145v-1440h-145zM229 551l400 448h180l-410 -446l457 -553h-174z" />
<glyph unicode="l" horiz-adv-x="348" d="M102 0v1440l144 -90v-1350h-144z" />
<glyph unicode="m" horiz-adv-x="1607" d="M82 0v999l172 -122q142 149 295 149h2q215 0 303 -213q166 211 342 211q160 0 252 -119q78 -98 78 -221v-684h-146v666q0 92 -43 149q-55 72 -161 72q-125 0 -297 -211v-676h-146v655q0 96 -43 160q-53 76 -160 76q-119 0 -303 -209v-682h-145z" />
<glyph unicode="n" horiz-adv-x="1003" d="M82 0v999l172 -116q158 143 328 143q145 0 237 -90q102 -98 103 -274v-662h-146v635q0 94 -35 162q-53 96 -170 96q-166 0 -344 -184v-709h-145z" />
<glyph unicode="o" horiz-adv-x="1136" d="M82 506q0 225 145 373q139 143 340 143t344.5 -145.5t143.5 -370.5q0 -227 -138.5 -379t-349.5 -152q-209 0 -347 152t-138 379zM244 506q0 -176 75 -285q86 -125 248 -125q164 0 250 125q76 109 76 285q0 170 -78 276q-88 119 -248 119t-245 -119q-78 -106 -78 -276z " />
<glyph unicode="p" d="M82 -410v1409l176 -98q160 125 328 125q209 0 325 -131q129 -143 129 -422q0 -195 -108 -334q-125 -164 -344 -164q-195 0 -359 148v-533h-147zM223 281q182 -195 355 -195q113 0 200 90q107 107 107 297q0 219 -68 324q-71 114 -230 114h-3q-182 0 -361 -188v-442z" />
<glyph unicode="q" d="M82 473q0 279 129 422q117 131 326 131q168 0 327 -125l176 98v-1409h-147v533q-164 -147 -358 -148q-219 0 -345 164q-109 139 -108 334zM238 473q0 -190 106 -297q88 -90 201 -90q174 0 354 195v442q-178 188 -360 188q-162 0 -234 -114q-67 -102 -67 -318v-6z" />
<glyph unicode="r" horiz-adv-x="692" d="M82 0v999l170 -98q150 129 280 129q23 0 50 -4l28 -125q-47 12 -90 12q-111 0 -291 -172v-741h-147z" />
<glyph unicode="s" horiz-adv-x="806" d="M82 66l55 79q125 -71 256 -71h4q68 0 122 45t54 110q0 117 -112 179q-76 43 -203 110q-164 84 -164 273q0 111 89 179t223 68q127 0 247 -88l-45 -76q-102 59 -194 60q-90 0 -135 -55q-37 -43 -37 -97q0 -100 102 -157q109 -63 245 -145.5t136 -248.5q0 -90 -72 -165 q-92 -96 -250 -97q-193 0 -321 97z" />
<glyph unicode="t" horiz-adv-x="718" d="M82 899v100h180v441h144v-441h231v-100h-229v-637q0 -174 118 -174h111l-57 -115h-111q-63 0 -115 41q-92 74 -92 248v637h-180z" />
<glyph unicode="u" horiz-adv-x="987" d="M82 344v655h145v-671q0 -80 56 -150q72 -88 202 -88q117 0 275 176v733h145v-999l-176 104q-125 -129 -305 -129q-158 0 -254 117q-88 104 -88 252z" />
<glyph unicode="v" horiz-adv-x="1062" d="M82 999h151l299 -868l299 868h150l-365 -999h-170z" />
<glyph unicode="w" horiz-adv-x="1562" d="M82 334v665h145v-655q0 -104 47 -174q55 -78 156 -78q102 0 193 92q86 86 86 168v647h145v-645q0 -133 74 -202q61 -59 155 -60q102 0 252 187v720h146v-999l-162 96q-127 -125 -270 -125q-207 0 -301 195q-98 -195 -342 -195q-174 0 -261 135q-63 98 -63 228z" />
<glyph unicode="x" horiz-adv-x="1021" d="M82 0l340 524l-297 475h170l217 -399l252 399h131l-307 -469l352 -530h-168l-278 436l-271 -436h-141z" />
<glyph unicode="y" horiz-adv-x="978" d="M82 344v655h145v-671q0 -80 56 -150q72 -88 202 -88q111 0 271 176v733h141v-999q0 -201 -115 -328q-125 -135 -342 -135q-47 0 -112 -2l-52 111h142q199 0 282 137q53 88 54 217v127q-139 -152 -330 -152q-158 0 -254 117q-88 104 -88 252z" />
<glyph unicode="z" horiz-adv-x="923" d="M82 0v70l561 817h-534v112h702v-84l-565 -804h596l-29 -111h-731z" />
<glyph unicode="{" horiz-adv-x="710" d="M82 520v94q168 51 168 244v324q0 178 108 262q78 59 174 59h97l-33 -98h-86q-43 0 -82 -53q-43 -61 -43 -146v-332q0 -197 -160 -307q160 -111 160 -307v-332q0 -84 43 -145q39 -53 82 -53h86l33 -99h-97q-96 0 -174 60q-109 84 -108 262v323q0 193 -168 244z" />
<glyph unicode="|" horiz-adv-x="262" d="M82 -18v1546h98v-1546h-98z" />
<glyph unicode="}" horiz-adv-x="710" d="M82 -369l33 99h86q43 0 82 53q43 61 43 145v332q0 197 159 307q-160 111 -159 307v332q0 84 -43 146q-39 53 -82 53h-86l-33 98h96q96 0 174 -59q109 -84 109 -262v-324q0 -193 168 -244v-94q-168 -51 -168 -244v-323q0 -178 -109 -262q-78 -59 -174 -60h-96z" />
<glyph unicode="~" horiz-adv-x="1062" d="M82 1219q115 176 287 176q98 0 193 -61.5t155 -61.5q109 0 186 108l78 -71q-115 -164 -289 -164q-109 0 -211 65.5t-147 65.5q-100 0 -178 -131z" />
<glyph unicode="&#xa1;" horiz-adv-x="430" d="M82 903q0 55 39 94t94 39t94 -39t39 -94t-39 -94t-94 -39t-94 39t-39 94zM117 -465l41 1065h118l41 -1065h-200z" />
<glyph unicode="&#xa2;" horiz-adv-x="931" d="M82 477q0 262 149 410q117 113 289 133v129h101v-129q141 -12 227 -86l-55 -86q-61 47 -172 55v-819q100 6 184 61l45 -79q-25 -23 -57 -39q-76 -41 -172 -50v-147h-101v147q-197 20 -317.5 164t-120.5 336zM244 481q0 -168 90 -276q75 -86 186 -113v807 q-119 -23 -192 -119q-84 -113 -84 -299z" />
<glyph unicode="&#xa3;" horiz-adv-x="1150" d="M82 0v131h45q63 0 119 43q88 66 88 207v340h-223v117h227v290q0 131 76 228q92 119 264 119q236 0 362 -154l-77 -90q-109 115 -279 115q-193 0 -192 -226v-282h391v-119h-391v-338q0 -166 -111 -250h688l-45 -131h-942z" />
<glyph unicode="&#xa4;" horiz-adv-x="1452" d="M82 469v106h156q-12 72 -13 130q0 70 6 116h-149v107h166q63 274 274 418q180 125 418 124q244 0 420 -147l-80 -88q-141 115 -338 115q-168 0 -311 -103q-160 -117 -215 -319h661l-43 -107h-641q-4 -49 -4 -123q0 -55 12 -123h574l-43 -106h-500q68 -182 232 -287 q141 -90 297 -90q184 0 335 119l74 -88q-170 -156 -412 -156q-240 0 -419 117q-203 133 -277 385h-180z" />
<glyph unicode="&#xa5;" horiz-adv-x="1198" d="M82 1440h170l354 -684l340 684h170l-358 -688h329v-107h-385l-16 -33v-155h401v-107h-401v-350h-164v350h-399v107h399v155l-18 33h-381v107h323z" />
<glyph unicode="&#xa6;" horiz-adv-x="262" d="M82 -18v612h98v-612h-98zM82 915v613h98v-613h-98z" />
<glyph unicode="&#xa7;" horiz-adv-x="983" d="M82 606q0 221 285 293q-221 129 -222 305q0 106 91 191q100 92 256 92q178 0 333 -139l-77 -70q-125 98 -250 98q-96 0 -146.5 -51t-50.5 -127q0 -111 197 -231q139 -86 252 -162q151 -102 151 -268q0 -172 -250 -279q166 -106 166 -258q0 -127 -108.5 -217t-282.5 -90 q-178 0 -342 145l61 86q143 -125 275 -125q96 0 165.5 55.5t69.5 147.5q0 70 -43 117q-27 29 -103.5 77t-236.5 140q-190 111 -190 270zM227 614q0 -100 131 -174q53 -29 209 -116q185 76 185 221q0 104 -174 219q-49 33 -103 63q-248 -55 -248 -213z" />
<glyph unicode="&#xa8;" horiz-adv-x="800" d="M82 1319q0 45 30.5 75.5t75.5 30.5t76 -30.5t31 -75.5t-31 -76t-76 -31t-75.5 31t-30.5 76zM506 1319q0 45 30.5 75.5t75.5 30.5t76 -30.5t31 -75.5t-31 -76t-76 -31t-75.5 31t-30.5 76z" />
<glyph unicode="&#xa9;" horiz-adv-x="1607" d="M82 733q0 299 211 510t512 211q299 0 510 -211t211 -510t-211 -511t-510 -212q-301 0 -512 212t-211 511zM160 733q0 -268 188.5 -456.5t456.5 -188.5q266 0 454.5 188.5t188.5 456.5q0 266 -188.5 454.5t-454.5 188.5q-268 0 -456.5 -188.5t-188.5 -454.5zM389 723 q0 221 150 346q121 100 280 100q143 0 250 -88l-47 -53q-84 70 -203 70q-123 0 -217 -92q-109 -106 -108 -287q0 -178 118 -287q98 -90 219 -90q111 0 201 72l43 -54q-102 -92 -246 -92q-170 0 -292 105q-147 125 -148 350z" />
<glyph unicode="&#xaa;" horiz-adv-x="643" d="M82 1174q0 135 72 210q61 66 155 66t178 -74v60h74v-498l-92 49q-68 -61 -160 -61q-111 0 -174 80q-53 72 -53 168zM160 1174q0 -94 53 -150q43 -43 100 -43q103 0 179 106v211q-90 94 -181 95q-152 0 -151 -219z" />
<glyph unicode="&#xab;" horiz-adv-x="962" d="M82 485l293 346h104l-233 -344l233 -344h-104zM483 485l293 346h105l-234 -344l234 -344h-105z" />
<glyph unicode="&#xac;" horiz-adv-x="1226" d="M82 711v118h1063v-569h-119v451h-944z" />
<glyph unicode="&#xad;" horiz-adv-x="671" d="M82 406v133h508v-133h-508z" />
<glyph unicode="&#xae;" horiz-adv-x="1607" d="M82 733q0 299 211 510t512 211q299 0 510 -211t211 -510t-211 -511t-510 -212q-301 0 -512 212t-211 511zM160 733q0 -268 188.5 -456.5t456.5 -188.5q266 0 454.5 188.5t188.5 456.5q0 266 -188.5 454.5t-454.5 188.5q-268 0 -456.5 -188.5t-188.5 -454.5zM565 289v862 h285q90 0 149 -43q86 -59 86 -195q0 -170 -178 -221l211 -403h-108l-191 383h-164v-383h-90zM655 737h172q68 0 118 46.5t50 134.5q0 86 -57 133q-47 37 -111 36h-172v-350z" />
<glyph unicode="&#xaf;" horiz-adv-x="843" d="M82 1282v94h680v-94h-680z" />
<glyph unicode="&#xb0;" horiz-adv-x="724" d="M82 1163q0 117 82 199t198 82q117 0 199 -82t82 -199t-82 -198.5t-199 -81.5t-198.5 82t-81.5 198zM205 1163q0 -66 46 -111.5t111 -45.5q66 0 112 45.5t46 111.5t-46 112t-112 46t-111.5 -46t-45.5 -112z" />
<glyph unicode="&#xb1;" horiz-adv-x="1228" d="M82 702v89h487v415h88v-415h488v-89h-488v-399h-88v399h-487zM84 51v88h1063v-88h-1063z" />
<glyph unicode="&#xb2;" horiz-adv-x="712" d="M82 590v74q262 281 336 362q98 111 98 211q0 53 -24 96q-41 72 -136 72q-115 0 -182 -109l-59 31q70 145 247 146q150 0 213 -89q41 -57 41 -131q0 -139 -110 -254l-318 -337h443v-72h-549z" />
<glyph unicode="&#xb3;" horiz-adv-x="671" d="M82 666l47 45q84 -72 168 -72q57 0 106 27q80 47 80 153q0 121 -102 170q-53 27 -115 27h-41v59h43q88 0 142 64q45 55 45 125q0 63 -43 103t-119 40q-90 0 -152 -66l-45 39q80 94 207 95q80 0 152 -39q98 -55 98 -166q0 -158 -156 -217q193 -74 193 -234 q0 -123 -90 -188q-78 -57 -203 -58q-141 0 -215 93z" />
<glyph unicode="&#xb4;" horiz-adv-x="602" d="M82 1165l291 324h147l-291 -324h-147z" />
<glyph unicode="&#xb6;" horiz-adv-x="1236" d="M82 981q0 266 203 385q131 76 305 76h565l-33 -127h-84v-1571h-123v1571h-278v-1571h-129v834q-125 10 -213 53q-213 102 -213 350z" />
<glyph unicode="&#xb7;" horiz-adv-x="438" d="M82 578q0 55 41 96t98 41q53 0 94 -41t41 -96t-41 -96.5t-94 -41.5q-57 0 -98 41t-41 97z" />
<glyph unicode="&#xb8;" horiz-adv-x="616" d="M82 -440l31 65q70 -18 120 -18q184 0 185 108q0 41 -32 65.5t-73 24.5q-45 0 -77 -16l-66 23l111 198h84l-80 -141q250 9 250 -145q0 -102 -115 -154q-80 -35 -180 -35q-70 0 -158 25z" />
<glyph unicode="&#xb9;" horiz-adv-x="468" d="M82 1321l213 139h92v-872h-100v809l-170 -119z" />
<glyph unicode="&#xba;" horiz-adv-x="649" d="M82 1184q0 113 71.5 185.5t172.5 72.5q100 0 170.5 -72.5t70.5 -185.5t-68.5 -188.5t-172.5 -75.5q-106 0 -175 75.5t-69 188.5zM162 1184q0 -86 39 -142q43 -63 125 -63q80 0 123 63q38 54 38 142q0 86 -40.5 142t-120.5 56t-122 -56t-42 -142z" />
<glyph unicode="&#xbb;" horiz-adv-x="962" d="M82 143l233 344l-233 344h104l293 -346l-293 -342h-104zM483 143l234 344l-234 344h105l293 -346l-293 -342h-105z" />
<glyph unicode="&#xbc;" horiz-adv-x="1718" d="M82 1321l213 139h92v-872h-100v809l-170 -119zM358 0l826 1466h100l-825 -1466h-101zM1044 219v47l404 598h74v-581h114v-64h-114v-219h-92v219h-386zM1145 283h285v419z" />
<glyph unicode="&#xbd;" horiz-adv-x="1722" d="M82 1321l213 139h92v-872h-100v809l-170 -119zM358 0l826 1466h100l-825 -1466h-101zM1094 0v76q262 279 333 360q100 111 101 211q0 53 -27 98q-39 70 -133 70q-115 0 -184 -106l-58 28q68 145 248 146q150 0 213 -88q41 -55 41 -131q0 -137 -110 -254l-318 -338h440 v-72h-546z" />
<glyph unicode="&#xbe;" horiz-adv-x="1716" d="M82 666l47 45q84 -72 168 -72q57 0 106 27q80 47 80 153q0 121 -102 170q-53 27 -115 27h-41v59h43q88 0 142 64q45 55 45 125q0 63 -43 103t-119 40q-90 0 -152 -66l-45 39q80 94 207 95q80 0 152 -39q98 -55 98 -166q0 -158 -156 -217q193 -74 193 -234 q0 -123 -90 -188q-78 -57 -203 -58q-141 0 -215 93zM418 0l825 1466h100l-825 -1466h-100zM1042 219v47l404 598h74v-581h114v-64h-114v-219h-93v219h-385zM1141 283h286v419z" />
<glyph unicode="&#xbf;" horiz-adv-x="989" d="M82 -156q0 168 156 312q78 66 155 129q92 84 92 143q0 68 -22 147h96q35 -63 35 -157q0 -90 -82 -185q-63 -66 -129 -129q-121 -129 -121 -256q0 -80 51 -143q68 -88 203 -88q201 0 295 180l96 -53q-121 -236 -428 -236q-236 0 -336 138q-61 86 -61 198zM379 899 q0 55 39 94t94 39t94 -39t39 -94t-39 -94t-94 -39t-94 39t-39 94z" />
<glyph unicode="&#xc0;" horiz-adv-x="1417" d="M82 0l553 1440h170l530 -1440h-180l-133 393h-641l-133 -393h-166zM348 1950h147l291 -324h-147zM418 498h569l-278 788z" />
<glyph unicode="&#xc1;" horiz-adv-x="1417" d="M82 0l553 1440h170l530 -1440h-180l-133 393h-641l-133 -393h-166zM418 498h569l-278 788zM555 1620l291 324h147l-291 -324h-147z" />
<glyph unicode="&#xc2;" horiz-adv-x="1417" d="M82 0l553 1440h170l530 -1440h-180l-133 393h-641l-133 -393h-166zM367 1620l338 330l338 -330h-111l-227 207l-227 -207h-111zM418 498h569l-278 788z" />
<glyph unicode="&#xc3;" horiz-adv-x="1417" d="M82 0l553 1440h170l530 -1440h-180l-133 393h-641l-133 -393h-166zM342 1665q92 139 227 139q78 0 153 -49t122 -49q86 0 147 86l66 -60q-90 -129 -230 -129q-84 0 -164.5 51.5t-117.5 51.5q-78 0 -142 -103zM418 498h569l-278 788z" />
<glyph unicode="&#xc4;" horiz-adv-x="1417" d="M82 0l553 1440h170l530 -1440h-180l-133 393h-641l-133 -393h-166zM361 1735q0 45 30.5 75.5t75.5 30.5t76 -30.5t31 -75.5t-31 -76t-76 -31t-75.5 31t-30.5 76zM418 498h569l-278 788zM785 1735q0 45 30.5 75.5t75.5 30.5t76 -30.5t31 -75.5t-31 -76t-76 -31t-75.5 31 t-30.5 76z" />
<glyph unicode="&#xc5;" horiz-adv-x="1417" d="M82 0l553 1440h170l530 -1440h-180l-133 393h-641l-133 -393h-166zM418 498h569l-278 788zM430 1814q0 82 58.5 141.5t142.5 59.5t142 -59.5t58 -141.5q0 -84 -58 -142t-142 -58t-142.5 58t-58.5 142zM498 1812q0 -55 39.5 -95t95.5 -40q57 0 96 40t39 95q0 57 -39 97.5 t-96 40.5q-55 0 -95 -40t-40 -98z" />
<glyph unicode="&#xc6;" horiz-adv-x="1880" d="M82 0l872 1442h789v-117h-543v-518h504l-35 -117h-469v-573h598v-117h-764v393h-549l-227 -393h-176zM549 502h485v790h-12z" />
<glyph unicode="&#xc7;" horiz-adv-x="1308" d="M82 725q0 371 248 578q203 168 467 167q242 0 420 -147l-80 -88q-141 115 -338 115q-205 0 -361 -154q-182 -176 -182 -477q0 -297 197 -477q166 -150 364 -150q184 0 336 119l74 -88q-172 -156 -412 -156q-283 0 -487 174q-246 209 -246 584zM612 -440l31 65 q70 -18 120 -18q184 0 185 108q0 41 -32 65.5t-73 24.5q-45 0 -77 -16l-66 23l111 198h84l-80 -141q250 9 250 -145q0 -102 -115 -154q-80 -35 -180 -35q-70 0 -158 25z" />
<glyph unicode="&#xc8;" horiz-adv-x="1001" d="M82 0v1442h776v-117h-610v-518h543l-35 -117h-508v-573h672v-117h-838zM188 1944h147l291 -324h-147z" />
<glyph unicode="&#xc9;" horiz-adv-x="1001" d="M82 0v1442h776v-117h-610v-518h543l-35 -117h-508v-573h672v-117h-838zM342 1614l291 324h147l-291 -324h-147z" />
<glyph unicode="&#xca;" horiz-adv-x="1001" d="M82 0v1442h776v-117h-610v-518h543l-35 -117h-508v-573h672v-117h-838zM188 1632l338 330l338 -330h-111l-227 207l-227 -207h-111z" />
<glyph unicode="&#xcb;" horiz-adv-x="1001" d="M82 0v1442h776v-117h-610v-518h543l-35 -117h-508v-573h672v-117h-838zM176 1720q0 45 30.5 75.5t75.5 30.5t76 -30.5t31 -75.5t-31 -76t-76 -31t-75.5 31t-30.5 76zM600 1720q0 45 30.5 75.5t75.5 30.5t76 -30.5t31 -75.5t-31 -76t-76 -31t-75.5 31t-30.5 76z" />
<glyph unicode="&#xcc;" horiz-adv-x="602" d="M82 1950h147l291 -324h-147zM348 0v1440h164v-1440h-164z" />
<glyph unicode="&#xcd;" horiz-adv-x="643" d="M102 0v1440h164v-1440h-164zM123 1624l291 324h147l-291 -324h-147z" />
<glyph unicode="&#xce;" horiz-adv-x="839" d="M82 1624l338 330l338 -330h-111l-227 207l-227 -207h-111zM364 0v1440h164v-1440h-164z" />
<glyph unicode="&#xcf;" horiz-adv-x="800" d="M82 1722q0 45 30.5 75.5t75.5 30.5t76 -30.5t31 -75.5t-31 -76t-76 -31t-75.5 31t-30.5 76zM342 0v1440h164v-1440h-164zM506 1722q0 45 30.5 75.5t75.5 30.5t76 -30.5t31 -75.5t-31 -76t-76 -31t-75.5 31t-30.5 76z" />
<glyph unicode="&#xd1;" horiz-adv-x="1316" d="M64 0v1440h164l866 -1233v1233h141v-1440h-168l-868 1239v-1239h-135zM309 1632q92 139 227 139q78 0 153 -49t122 -49q86 0 147 86l66 -60q-90 -129 -230 -129q-84 0 -164.5 51.5t-117.5 51.5q-78 0 -142 -103z" />
<glyph unicode="&#xd2;" horiz-adv-x="1556" d="M82 731q0 315 197.5 528.5t498.5 213.5t499 -213.5t198 -528.5q0 -328 -194 -545t-503 -217t-502.5 217t-193.5 545zM256 731q0 -262 129 -436q143 -193 393 -193t393 193q129 174 129 436q0 256 -133 424q-143 184 -389 184t-389 -184q-133 -168 -133 -424zM432 1948 h147l291 -324h-147z" />
<glyph unicode="&#xd3;" horiz-adv-x="1556" d="M82 731q0 315 197.5 528.5t498.5 213.5t499 -213.5t198 -528.5q0 -328 -194 -545t-503 -217t-502.5 217t-193.5 545zM256 731q0 -262 129 -436q143 -193 393 -193t393 193q129 174 129 436q0 256 -133 424q-143 184 -389 184t-389 -184q-133 -168 -133 -424zM686 1624 l291 324h147l-291 -324h-147z" />
<glyph unicode="&#xd4;" horiz-adv-x="1556" d="M82 731q0 315 197.5 528.5t498.5 213.5t499 -213.5t198 -528.5q0 -328 -194 -545t-503 -217t-502.5 217t-193.5 545zM256 731q0 -262 129 -436q143 -193 393 -193t393 193q129 174 129 436q0 256 -133 424q-143 184 -389 184t-389 -184q-133 -168 -133 -424zM438 1620 l338 330l338 -330h-111l-227 207l-227 -207h-111z" />
<glyph unicode="&#xd5;" horiz-adv-x="1556" d="M82 731q0 315 197.5 528.5t498.5 213.5t499 -213.5t198 -528.5q0 -328 -194 -545t-503 -217t-502.5 217t-193.5 545zM256 731q0 -262 129 -436q143 -193 393 -193t393 193q129 174 129 436q0 256 -133 424q-143 184 -389 184t-389 -184q-133 -168 -133 -424zM473 1673 q92 139 227 139q78 0 153 -49t122 -49q86 0 147 86l66 -60q-90 -129 -230 -129q-84 0 -164.5 51.5t-117.5 51.5q-78 0 -142 -103z" />
<glyph unicode="&#xd6;" horiz-adv-x="1556" d="M82 731q0 315 197.5 528.5t498.5 213.5t499 -213.5t198 -528.5q0 -328 -194 -545t-503 -217t-502.5 217t-193.5 545zM256 731q0 -262 129 -436q143 -193 393 -193t393 193q129 174 129 436q0 256 -133 424q-143 184 -389 184t-389 -184q-133 -168 -133 -424zM463 1722 q0 45 30.5 75.5t75.5 30.5t76 -30.5t31 -75.5t-31 -76t-76 -31t-75.5 31t-30.5 76zM887 1722q0 45 30.5 75.5t75.5 30.5t76 -30.5t31 -75.5t-31 -76t-76 -31t-75.5 31t-30.5 76z" />
<glyph unicode="&#xd7;" horiz-adv-x="1128" d="M82 948l88 84l395 -379l396 379l86 -84l-396 -379l396 -379l-89 -84l-393 379l-395 -379l-86 84l393 379z" />
<glyph unicode="&#xd8;" horiz-adv-x="1691" d="M82 0l225 227q-160 207 -160 504q0 315 198 528.5t499 213.5q297 0 495 -209l140 139h131l-211 -213q141 -197 141 -459q0 -328 -193.5 -545t-502.5 -217q-281 0 -471 185l-152 -154h-139zM322 731q0 -225 100 -391l811 817q-143 182 -389 182t-389 -184 q-133 -168 -133 -424zM479 260q141 -158 365 -158q250 0 393 193q129 174 129 436q0 195 -80 344z" />
<glyph unicode="&#xd9;" horiz-adv-x="1230" d="M82 549v893h166v-879q0 -465 377 -465q193 0 290 144q84 121 84 313v887h150v-901q0 -256 -148.5 -414t-379.5 -158q-250 0 -394.5 155t-144.5 425zM326 1946h147l291 -324h-147z" />
<glyph unicode="&#xda;" horiz-adv-x="1230" d="M82 549v893h166v-879q0 -465 377 -465q193 0 290 144q84 121 84 313v887h150v-901q0 -256 -148.5 -414t-379.5 -158q-250 0 -394.5 155t-144.5 425zM557 1622l291 324h147l-291 -324h-147z" />
<glyph unicode="&#xdb;" horiz-adv-x="1230" d="M82 549v893h166v-879q0 -465 377 -465q193 0 290 144q84 121 84 313v887h150v-901q0 -256 -148.5 -414t-379.5 -158q-250 0 -394.5 155t-144.5 425zM287 1620l338 330l338 -330h-111l-227 207l-227 -207h-111z" />
<glyph unicode="&#xdc;" horiz-adv-x="1230" d="M82 549v893h166v-879q0 -465 377 -465q193 0 290 144q84 121 84 313v887h150v-901q0 -256 -148.5 -414t-379.5 -158q-250 0 -394.5 155t-144.5 425zM315 1716q0 45 30.5 75.5t75.5 30.5t76 -30.5t31 -75.5t-31 -76t-76 -31t-75.5 31t-30.5 76zM739 1716q0 45 30.5 75.5 t75.5 30.5t76 -30.5t31 -75.5t-31 -76t-76 -31t-75.5 31t-30.5 76z" />
<glyph unicode="&#xdd;" horiz-adv-x="1198" d="M82 1440h170l354 -684l340 684h170l-430 -828v-612h-164v612zM428 1626l291 324h147l-291 -324h-147z" />
<glyph unicode="&#xdf;" horiz-adv-x="1165" d="M82 0v1077q0 268 149 385q104 82 261 82q150 0 251 -65q135 -86 136 -269q0 -115 -48 -200q-23 -43 -83 -113q-47 -53 -48 -84q0 -39 99 -106q137 -96 186 -148q98 -106 98 -235q0 -184 -131 -281q-98 -72 -215 -72q-102 0 -258 58l33 121q135 -49 213 -50q68 0 125 41 q82 59 82 181q0 111 -101 204q-4 4 -186 142q-100 74 -100 137q0 53 51 113q86 100 92 112q51 80 51 180q0 209 -243 209q-266 0 -267 -346v-1073h-147z" />
<glyph unicode="&#xe0;" d="M82 473q0 272 141 422q125 131 314 131q186 0 356 -149v120h147v-997l-184 100q-133 -125 -321 -125q-219 0 -345 164q-109 139 -108 334zM238 473q0 -190 106 -297q88 -90 201 -90q204 0 354 213v424q-178 188 -360 188q-147 0 -224 -113.5t-77 -324.5zM318 1489h147 l291 -324h-147z" />
<glyph unicode="&#xe1;" d="M82 473q0 272 141 422q125 131 314 131q186 0 356 -149v120h147v-997l-184 100q-133 -125 -321 -125q-219 0 -345 164q-109 139 -108 334zM238 473q0 -190 106 -297q88 -90 201 -90q204 0 354 213v424q-178 188 -360 188q-147 0 -224 -113.5t-77 -324.5zM475 1165 l291 324h147l-291 -324h-147z" />
<glyph unicode="&#xe2;" d="M82 473q0 272 141 422q125 131 314 131q186 0 356 -149v120h147v-997l-184 100q-133 -125 -321 -125q-219 0 -345 164q-109 139 -108 334zM232 1163l338 330l338 -330h-111l-227 207l-227 -207h-111zM238 473q0 -190 106 -297q88 -90 201 -90q204 0 354 213v424 q-178 188 -360 188q-147 0 -224 -113.5t-77 -324.5z" />
<glyph unicode="&#xe3;" d="M82 473q0 272 141 422q125 131 314 131q186 0 356 -149v120h147v-997l-184 100q-133 -125 -321 -125q-219 0 -345 164q-109 139 -108 334zM209 1276q92 139 227 139q78 0 153 -49t122 -49q86 0 147 86l66 -60q-90 -129 -230 -129q-84 0 -164.5 51.5t-117.5 51.5 q-78 0 -142 -103zM238 473q0 -190 106 -297q88 -90 201 -90q204 0 354 213v424q-178 188 -360 188q-147 0 -224 -113.5t-77 -324.5z" />
<glyph unicode="&#xe4;" d="M82 473q0 272 141 422q125 131 314 131q186 0 356 -149v120h147v-997l-184 100q-133 -125 -321 -125q-219 0 -345 164q-109 139 -108 334zM238 473q0 -190 106 -297q88 -90 201 -90q204 0 354 213v424q-178 188 -360 188q-147 0 -224 -113.5t-77 -324.5zM256 1325 q0 45 30.5 75.5t75.5 30.5t76 -30.5t31 -75.5t-31 -76t-76 -31t-75.5 31t-30.5 76zM680 1325q0 45 30.5 75.5t75.5 30.5t76 -30.5t31 -75.5t-31 -76t-76 -31t-75.5 31t-30.5 76z" />
<glyph unicode="&#xe5;" d="M82 473q0 272 141 422q125 131 314 131q186 0 356 -149v120h147v-997l-184 100q-133 -125 -321 -125q-219 0 -345 164q-109 139 -108 334zM238 473q0 -190 106 -297q88 -90 201 -90q204 0 354 213v424q-178 188 -360 188q-147 0 -224 -113.5t-77 -324.5zM375 1341 q0 82 58.5 141.5t142.5 59.5t142 -59.5t58 -141.5q0 -84 -58 -142t-142 -58t-142.5 58t-58.5 142zM443 1339q0 -55 39.5 -95t95.5 -40q57 0 96 40t39 95q0 57 -39 97.5t-96 40.5q-55 0 -95 -40t-40 -98z" />
<glyph unicode="&#xe6;" horiz-adv-x="1656" d="M82 266q0 188 178 262q104 45 258 45h215q0 348 -262 349q-156 0 -264 -86l-66 82q111 106 338 106q254 0 332 -209q88 209 346 209q439 0 416 -555h-701q0 -117 43 -213q76 -170 261 -170q150 0 241 66l49 -89q-119 -94 -297 -94q-238 0 -368 197q-121 -199 -383 -199 q-98 0 -195 56q-141 82 -141 243zM225 272q0 -102 82 -155q61 -39 137 -39q119 0 207 94t88 201v94h-247q-266 0 -267 -195zM879 567h559q0 102 -27 176q-68 178 -258 179q-274 0 -274 -355z" />
<glyph unicode="&#xe7;" horiz-adv-x="931" d="M82 477q0 285 176 432q135 113 313 113q174 0 277 -88l-55 -86q-76 57 -213 57t-230 -98q-106 -115 -106 -326q0 -199 123 -309q98 -88 221 -88t217 61l45 -79q-102 -90 -272 -91q-221 0 -361 150q-135 143 -135 352zM344 -440l31 65q70 -18 120 -18q184 0 185 108 q0 41 -32 65.5t-73 24.5q-45 0 -77 -16l-66 23l111 198h84l-80 -141q250 9 250 -145q0 -102 -115 -154q-80 -35 -180 -35q-70 0 -158 25z" />
<glyph unicode="&#xe8;" horiz-adv-x="1052" d="M82 473q0 180 55 305q113 246 412 246q297 0 389 -264q37 -110 31 -266h-733q-12 -98 45 -224q84 -188 286 -188q141 0 246 72l47 -93q-109 -92 -315 -92q-262 0 -383 201q-80 135 -80 303zM248 592h569q-4 98 -31 168q-63 166 -229 166q-188 0 -268 -166 q-33 -70 -41 -168zM248 1489h147l291 -324h-147z" />
<glyph unicode="&#xe9;" horiz-adv-x="1052" d="M82 473q0 180 55 305q113 246 412 246q297 0 389 -264q37 -110 31 -266h-733q-12 -98 45 -224q84 -188 286 -188q141 0 246 72l47 -93q-109 -92 -315 -92q-262 0 -383 201q-80 135 -80 303zM248 592h569q-4 98 -31 168q-63 166 -229 166q-188 0 -268 -166 q-33 -70 -41 -168zM436 1165l291 324h147l-291 -324h-147z" />
<glyph unicode="&#xea;" horiz-adv-x="1052" d="M82 473q0 180 55 305q113 246 412 246q297 0 389 -264q37 -110 31 -266h-733q-12 -98 45 -224q84 -188 286 -188q141 0 246 72l47 -93q-109 -92 -315 -92q-262 0 -383 201q-80 135 -80 303zM221 1163l338 330l338 -330h-111l-227 207l-227 -207h-111zM248 592h569 q-4 98 -31 168q-63 166 -229 166q-188 0 -268 -166q-33 -70 -41 -168z" />
<glyph unicode="&#xeb;" horiz-adv-x="1052" d="M82 473q0 180 55 305q113 246 412 246q297 0 389 -264q37 -110 31 -266h-733q-12 -98 45 -224q84 -188 286 -188q141 0 246 72l47 -93q-109 -92 -315 -92q-262 0 -383 201q-80 135 -80 303zM234 1319q0 45 30.5 75.5t75.5 30.5t76 -30.5t31 -75.5t-31 -76t-76 -31 t-75.5 31t-30.5 76zM248 592h569q-4 98 -31 168q-63 166 -229 166q-188 0 -268 -166q-33 -70 -41 -168zM658 1319q0 45 30.5 75.5t75.5 30.5t76 -30.5t31 -75.5t-31 -76t-76 -31t-75.5 31t-30.5 76z" />
<glyph unicode="&#xec;" horiz-adv-x="401" d="M-131 1489h147l291 -324h-147zM129 0v999h145v-999h-145z" />
<glyph unicode="&#xed;" horiz-adv-x="382" d="M82 1165l291 324h147l-291 -324h-147zM113 0v999h145v-999h-145z" />
<glyph unicode="&#xee;" horiz-adv-x="425" d="M-131 1163l338 330l338 -330h-111l-227 207l-227 -207h-111zM137 0v999h145v-999h-145z" />
<glyph unicode="&#xef;" horiz-adv-x="456" d="M-90 1319q0 45 30.5 75.5t75.5 30.5t76 -30.5t31 -75.5t-31 -76t-76 -31t-75.5 31t-30.5 76zM158 0v999h145v-999h-145zM334 1319q0 45 30.5 75.5t75.5 30.5t76 -30.5t31 -75.5t-31 -76t-76 -31t-75.5 31t-30.5 76z" />
<glyph unicode="&#xf1;" horiz-adv-x="1003" d="M82 0v999l172 -116q158 143 328 143q145 0 237 -90q102 -98 103 -274v-662h-146v635q0 94 -35 162q-53 96 -170 96q-166 0 -344 -184v-709h-145zM162 1276q92 139 227 139q78 0 153 -49t122 -49q86 0 147 86l66 -60q-90 -129 -230 -129q-84 0 -164.5 51.5t-117.5 51.5 q-78 0 -142 -103z" />
<glyph unicode="&#xf2;" horiz-adv-x="1136" d="M82 506q0 225 145 373q139 143 340 143t344.5 -145.5t143.5 -370.5q0 -227 -138.5 -379t-349.5 -152q-209 0 -347 152t-138 379zM238 1489h147l291 -324h-147zM244 506q0 -176 75 -285q86 -125 248 -125q164 0 250 125q76 109 76 285q0 170 -78 276q-88 119 -248 119 t-245 -119q-78 -106 -78 -276z" />
<glyph unicode="&#xf3;" horiz-adv-x="1136" d="M82 506q0 225 145 373q139 143 340 143t344.5 -145.5t143.5 -370.5q0 -227 -138.5 -379t-349.5 -152q-209 0 -347 152t-138 379zM244 506q0 -176 75 -285q86 -125 248 -125q164 0 250 125q76 109 76 285q0 170 -78 276q-88 119 -248 119t-245 -119q-78 -106 -78 -276z M473 1165l291 324h147l-291 -324h-147z" />
<glyph unicode="&#xf4;" horiz-adv-x="1136" d="M82 506q0 225 145 373q139 143 340 143t344.5 -145.5t143.5 -370.5q0 -227 -138.5 -379t-349.5 -152q-209 0 -347 152t-138 379zM234 1163l338 330l338 -330h-111l-227 207l-227 -207h-111zM244 506q0 -176 75 -285q86 -125 248 -125q164 0 250 125q76 109 76 285 q0 170 -78 276q-88 119 -248 119t-245 -119q-78 -106 -78 -276z" />
<glyph unicode="&#xf5;" horiz-adv-x="1136" d="M82 506q0 225 145 373q139 143 340 143t344.5 -145.5t143.5 -370.5q0 -227 -138.5 -379t-349.5 -152q-209 0 -347 152t-138 379zM232 1276q92 139 227 139q78 0 153 -49t122 -49q86 0 147 86l66 -60q-90 -129 -230 -129q-84 0 -164.5 51.5t-117.5 51.5q-78 0 -142 -103z M244 506q0 -176 75 -285q86 -125 248 -125q164 0 250 125q76 109 76 285q0 170 -78 276q-88 119 -248 119t-245 -119q-78 -106 -78 -276z" />
<glyph unicode="&#xf6;" horiz-adv-x="1136" d="M82 506q0 225 145 373q139 143 340 143t344.5 -145.5t143.5 -370.5q0 -227 -138.5 -379t-349.5 -152q-209 0 -347 152t-138 379zM244 506q0 -176 75 -285q86 -125 248 -125q164 0 250 125q76 109 76 285q0 170 -78 276q-88 119 -248 119t-245 -119q-78 -106 -78 -276z M260 1319q0 45 30.5 75.5t75.5 30.5t76 -30.5t31 -75.5t-31 -76t-76 -31t-75.5 31t-30.5 76zM684 1319q0 45 30.5 75.5t75.5 30.5t76 -30.5t31 -75.5t-31 -76t-76 -31t-75.5 31t-30.5 76z" />
<glyph unicode="&#xf7;" horiz-adv-x="1228" d="M82 510v117h1065v-117h-1065zM473 229q0 59 42 101.5t103 42.5q59 0 101.5 -42.5t42.5 -101.5q0 -61 -42 -103t-102 -42q-61 0 -103 42t-42 103zM473 911q0 59 42 101.5t103 42.5q59 0 101.5 -42.5t42.5 -101.5q0 -61 -42 -103t-102 -42q-61 0 -103 42t-42 103z" />
<glyph unicode="&#xf8;" horiz-adv-x="1298" d="M82 0l172 168q-104 143 -104 338q0 225 145 373q139 143 340 143q203 0 344 -145l106 104h132l-181 -178q86 -129 86 -297q0 -227 -138 -379t-349 -152q-184 0 -318 121l-96 -96h-139zM311 506q0 -137 47 -236l525 512q-88 119 -248 119t-246 -119q-78 -106 -78 -276z M412 188q84 -92 223 -92q164 0 250 125q76 109 76 285q0 106 -33 190z" />
<glyph unicode="&#xf9;" horiz-adv-x="987" d="M82 344v655h145v-671q0 -80 56 -150q72 -88 202 -88q117 0 275 176v733h145v-999l-176 104q-125 -129 -305 -129q-158 0 -254 117q-88 104 -88 252zM191 1489h147l291 -324h-147z" />
<glyph unicode="&#xfa;" horiz-adv-x="987" d="M82 344v655h145v-671q0 -80 56 -150q72 -88 202 -88q117 0 275 176v733h145v-999l-176 104q-125 -129 -305 -129q-158 0 -254 117q-88 104 -88 252zM408 1165l291 324h147l-291 -324h-147z" />
<glyph unicode="&#xfb;" horiz-adv-x="987" d="M82 344v655h145v-671q0 -80 56 -150q72 -88 202 -88q117 0 275 176v733h145v-999l-176 104q-125 -129 -305 -129q-158 0 -254 117q-88 104 -88 252zM164 1163l338 330l338 -330h-111l-227 207l-227 -207h-111z" />
<glyph unicode="&#xfc;" horiz-adv-x="987" d="M82 344v655h145v-671q0 -80 56 -150q72 -88 202 -88q117 0 275 176v733h145v-999l-176 104q-125 -129 -305 -129q-158 0 -254 117q-88 104 -88 252zM166 1319q0 45 30.5 75.5t75.5 30.5t76 -30.5t31 -75.5t-31 -76t-76 -31t-75.5 31t-30.5 76zM590 1319q0 45 30.5 75.5 t75.5 30.5t76 -30.5t31 -75.5t-31 -76t-76 -31t-75.5 31t-30.5 76z" />
<glyph unicode="&#xfd;" horiz-adv-x="1003" d="M82 344v655h145v-671q0 -80 56 -150q72 -88 202 -88q111 0 271 176v733h141v-999q0 -201 -115 -328q-125 -135 -342 -135q-47 0 -112 -2l-52 111h142q199 0 282 137q53 88 54 217v127q-139 -152 -330 -152q-158 0 -254 117q-88 104 -88 252zM483 1165l291 324h147 l-291 -324h-147z" />
<glyph unicode="&#xff;" horiz-adv-x="978" d="M82 344v655h145v-671q0 -80 56 -150q72 -88 202 -88q111 0 271 176v733h141v-999q0 -201 -115 -328q-125 -135 -342 -135q-47 0 -112 -2l-52 111h142q199 0 282 137q53 88 54 217v127q-139 -152 -330 -152q-158 0 -254 117q-88 104 -88 252zM170 1319q0 45 30.5 75.5 t75.5 30.5t76 -30.5t31 -75.5t-31 -76t-76 -31t-75.5 31t-30.5 76zM594 1319q0 45 30.5 75.5t75.5 30.5t76 -30.5t31 -75.5t-31 -76t-76 -31t-75.5 31t-30.5 76z" />
<glyph unicode="&#x152;" horiz-adv-x="2007" d="M82 731q0 315 197.5 528.5t498.5 213.5q178 0 330 -82v51h756v-117h-592v-518h526l-37 -117h-489v-573h653v-117h-817v45q-121 -76 -330 -76q-309 0 -502.5 217t-193.5 545zM256 731q0 -262 129 -436q143 -193 393 -193q203 0 330 129v981q-109 127 -330 127 q-246 0 -389 -184q-133 -168 -133 -424z" />
<glyph unicode="&#x153;" horiz-adv-x="1837" d="M82 496q0 248 162 399q139 129 305 129q289 0 422 -231q106 227 387 227q268 0 358 -242q39 -106 39 -307h-708q0 -117 40 -213q78 -180 277 -180q145 0 254 74l51 -89q-127 -96 -311 -94q-285 4 -393 248q-78 -246 -430 -246q-145 0 -281 119q-172 150 -172 406z M240 496q0 -133 53 -244q82 -166 254 -166q201 0 293 162q61 106 61 235q0 141 -51 244q-86 178 -303 178q-184 0 -262 -170q-45 -104 -45 -239zM1057 567h567q0 102 -45 195q-70 150 -227 149q-170 0 -246 -141q-49 -88 -49 -203z" />
<glyph unicode="&#x178;" horiz-adv-x="1198" d="M82 1440h170l354 -684l340 684h170l-430 -828v-612h-164v612zM291 1716q0 45 30.5 75.5t75.5 30.5t76 -30.5t31 -75.5t-31 -76t-76 -31t-75.5 31t-30.5 76zM715 1716q0 45 30.5 75.5t75.5 30.5t76 -30.5t31 -75.5t-31 -76t-76 -31t-75.5 31t-30.5 76z" />
<glyph unicode="&#x2c6;" horiz-adv-x="839" d="M82 1163l338 330l338 -330h-111l-227 207l-227 -207h-111z" />
<glyph unicode="&#x2dc;" horiz-adv-x="878" d="M82 1276q92 139 227 139q78 0 153 -49t122 -49q86 0 147 86l66 -60q-90 -129 -230 -129q-84 0 -164.5 51.5t-117.5 51.5q-78 0 -142 -103z" />
<glyph unicode="&#x2000;" horiz-adv-x="1007" />
<glyph unicode="&#x2001;" horiz-adv-x="2015" />
<glyph unicode="&#x2002;" horiz-adv-x="1007" />
<glyph unicode="&#x2003;" horiz-adv-x="2015" />
<glyph unicode="&#x2004;" horiz-adv-x="671" />
<glyph unicode="&#x2005;" horiz-adv-x="503" />
<glyph unicode="&#x2006;" horiz-adv-x="335" />
<glyph unicode="&#x2007;" horiz-adv-x="335" />
<glyph unicode="&#x2008;" horiz-adv-x="251" />
<glyph unicode="&#x2009;" horiz-adv-x="403" />
<glyph unicode="&#x200a;" horiz-adv-x="111" />
<glyph unicode="&#x2010;" horiz-adv-x="671" d="M82 406v133h508v-133h-508z" />
<glyph unicode="&#x2011;" horiz-adv-x="671" d="M82 406v133h508v-133h-508z" />
<glyph unicode="&#x2012;" horiz-adv-x="671" d="M82 406v133h508v-133h-508z" />
<glyph unicode="&#x2013;" horiz-adv-x="1187" d="M82 414v116h1024v-116h-1024z" />
<glyph unicode="&#x2014;" horiz-adv-x="2211" d="M82 414v116h2048v-116h-2048z" />
<glyph unicode="&#x2018;" horiz-adv-x="485" d="M82 934l242 547h79l-120 -391l20 -156h-221z" />
<glyph unicode="&#x2019;" horiz-adv-x="485" d="M82 934l121 391l-21 156h221l-241 -547h-80z" />
<glyph unicode="&#x201a;" horiz-adv-x="485" d="M82 -287l121 391l-21 156h221l-241 -547h-80z" />
<glyph unicode="&#x201c;" horiz-adv-x="911" d="M82 934l242 547h79l-120 -391l20 -156h-221zM508 934l242 547h79l-120 -391l20 -156h-221z" />
<glyph unicode="&#x201d;" horiz-adv-x="911" d="M82 934l121 391l-21 156h221l-241 -547h-80zM508 934l121 391l-21 156h221l-241 -547h-80z" />
<glyph unicode="&#x201e;" horiz-adv-x="911" d="M82 -287l121 391l-21 156h221l-241 -547h-80zM508 -287l121 391l-21 156h221l-241 -547h-80z" />
<glyph unicode="&#x2022;" horiz-adv-x="890" d="M82 717q0 152 106.5 258t257.5 106q150 0 256.5 -106t106.5 -258t-106.5 -257.5t-256.5 -105.5q-152 0 -258 105.5t-106 257.5z" />
<glyph unicode="&#x2026;" horiz-adv-x="1800" d="M82 123q0 55 41 96t98 41q53 0 94 -41t41 -96t-41 -96t-94 -41q-57 0 -98 40t-41 97zM760 123q0 55 41 96t96 41t96 -41t41 -96t-41 -96t-94 -41q-57 0 -98 40t-41 97zM1444 123q0 55 41 96t96 41t96 -41t41 -96t-41 -96t-94 -41q-57 0 -98 40t-41 97z" />
<glyph unicode="&#x202f;" horiz-adv-x="403" />
<glyph unicode="&#x2039;" horiz-adv-x="561" d="M82 485l293 346h104l-233 -344l233 -344h-104z" />
<glyph unicode="&#x203a;" horiz-adv-x="561" d="M82 143l233 344l-233 344h104l293 -346l-293 -342h-104z" />
<glyph unicode="&#x205f;" horiz-adv-x="503" />
<glyph unicode="&#x2122;" horiz-adv-x="1028" d="M82 1389v53h326v-53h-125v-349h-76v349h-125zM487 1040v400h109l119 -305l123 305h108v-400h-76v338l-133 -338h-51l-131 336v-336h-68z" />
</font>
</defs>
</svg>
